<?xml version="1.0" encoding="UTF-8"?> <!-- Generator: Adobe Illustrator 22.1.0, SVG Export Plug-In . SVG Version: 6.00 Build 0) --> <svg xmlns="http://www.w3.org/2000/svg" xmlns:xlink="http://www.w3.org/1999/xlink" id="Layer_1" x="0px" y="0px" viewBox="0 0 749 271" style="enable-background:new 0 0 749 271;" xml:space="preserve"> <style type="text/css"> .st0{opacity:0.186;fill:url(#SVGID_1_);enable-background:new ;} .st1{opacity:0.402;fill:none;stroke:#80DCD4;stroke-width:2;enable-background:new ;} .st2{opacity:0.186;fill:url(#SVGID_2_);enable-background:new ;} .st3{opacity:0.186;fill:url(#SVGID_3_);enable-background:new ;} .st4{opacity:0.145;fill:url(#SVGID_4_);enable-background:new ;} .st5{opacity:0.186;fill:none;stroke:#80DCD4;stroke-width:2;enable-background:new ;} .st6{fill:#FFFFFF;} .st7{opacity:0.186;fill:url(#SVGID_5_);enable-background:new ;} .st8{opacity:9.900000e-02;fill:url(#SVGID_6_);enable-background:new ;} .st9{opacity:0.247;fill:none;stroke:#80DCD4;stroke-width:2;enable-background:new ;} </style> <g> <linearGradient id="SVGID_1_" gradientUnits="userSpaceOnUse" x1="-574.2119" y1="756.8542" x2="-573.2537" y2="755.9296" gradientTransform="matrix(55 0 0 -55 31772 41673)"> <stop offset="0" style="stop-color:#80DCD4"></stop> <stop offset="1" style="stop-color:#0651D8"></stop> </linearGradient> <circle class="st0" cx="209.5" cy="64.5" r="27.5"></circle> <circle class="st1" cx="327.5" cy="55.5" r="54.5"></circle> <linearGradient id="SVGID_2_" gradientUnits="userSpaceOnUse" x1="-581.4199" y1="762.9203" x2="-580.8118" y2="762.3709" gradientTransform="matrix(170 0 0 -170 98962 129827)"> <stop offset="0" style="stop-color:#80DCD4"></stop> <stop offset="1" style="stop-color:#0651D8"></stop> </linearGradient> <circle class="st2" cx="182" cy="186" r="85"></circle> <linearGradient id="SVGID_3_" gradientUnits="userSpaceOnUse" x1="-581.8636" y1="763.3157" x2="-580.9054" y2="762.391" gradientTransform="matrix(196 0 0 -196 114543 149655)"> <stop offset="0" style="stop-color:#80DCD4"></stop> <stop offset="1" style="stop-color:#0651D8"></stop> </linearGradient> <circle class="st3" cx="566" cy="111" r="98"></circle> <linearGradient id="SVGID_4_" gradientUnits="userSpaceOnUse" x1="-580.2014" y1="761.9699" x2="-579.5407" y2="761.1975" gradientTransform="matrix(127 0 0 -127 74108 96898)"> <stop offset="0" style="stop-color:#80DCD4"></stop> <stop offset="1" style="stop-color:#0651D8"></stop> </linearGradient> <circle class="st4" cx="461.5" cy="173.5" r="63.5"></circle> <circle class="st5" cx="107" cy="130" r="40"></circle> <circle class="st5" cx="731" cy="174" r="17"></circle> <path class="st6" d="M372.4,46c-38.2,0-69.1,31.3-69.1,70c0,34.7,24.9,63.5,57.6,69c0,0,0.1,0,0.1,0c0,0,0,0,0,0 c-24.5-5.5-43-29.8-43-59c0-33.2,24-60.2,53.6-60.2v0c0.3,0,0.6,0,0.9,0c26.4,0,47.8,21.6,47.8,48.4c0,26.7-21.4,48.3-47.8,48.3 c-0.3,0-0.6,0-0.9,0V186c0.3,0,0.6,0,0.9,0c38.2,0,69.1-31.3,69.1-70C441.5,77.3,410.5,46,372.4,46 M192.7,132h38.2V80.4L192.7,132 L192.7,132z M182,141v-7.1l58.9-78.4h16.3V132h10.9c3.7,0,6.7-1.6,8.8-4.7c1.6-2.4,2.4-4.9,2.6-7.4h4v34.4h-4 c-0.1-3.1-0.8-5.8-1.9-8.1c-1.7-3.5-4.6-5.2-8.6-5.3h-11.8v23.9c0,4,1.9,7,5.6,9c2.8,1.5,5.9,2.3,9.4,2.6v4.1h-57.7v-4.1 c5.1-0.2,8.7-0.9,10.8-2c3.7-1.8,5.6-4.8,5.6-8.8V141L182,141L182,141z M462.3,132h38.2V80.4L462.3,132L462.3,132z M451.7,141v-7.1 l58.9-78.4h16.3V132h10.9c3.7,0,6.7-1.6,8.8-4.7c1.6-2.4,2.4-4.9,2.6-7.4h4v34.4h-4c-0.1-3.1-0.8-5.8-1.9-8.1 c-1.7-3.5-4.6-5.2-8.6-5.3h-11.8v23.9c0,4,1.9,7,5.6,9c2.8,1.5,5.9,2.3,9.4,2.6v4.1h-57.7v-4.1c5.1-0.2,8.7-0.9,10.8-2 c3.7-1.8,5.6-4.8,5.6-8.8V141L451.7,141L451.7,141z"></path> <linearGradient id="SVGID_5_" gradientUnits="userSpaceOnUse" x1="-571.8483" y1="754.8583" x2="-570.8901" y2="753.9337" gradientTransform="matrix(45 0 0 -45 26428 34052)"> <stop offset="0" style="stop-color:#80DCD4"></stop> <stop offset="1" style="stop-color:#0651D8"></stop> </linearGradient> <circle class="st7" cx="710.5" cy="98.5" r="22.5"></circle> <linearGradient id="SVGID_6_" gradientUnits="userSpaceOnUse" x1="-571.8483" y1="754.8583" x2="-570.8901" y2="753.9337" gradientTransform="matrix(45 0 0 -45 25740 34152)"> <stop offset="0" style="stop-color:#80DCD4"></stop> <stop offset="1" style="stop-color:#0651D8"></stop> </linearGradient> <circle class="st8" cx="22.5" cy="198.5" r="22.5"></circle> <circle class="st9" cx="595" cy="185" r="52"></circle> </g> </svg> 